<svg width="132" height="108" viewBox="0 0 132 108" fill="none" xmlns="http://www.w3.org/2000/svg">
<path d="M0.980444 69L-5.21191 54H0.980444H7.1728L13.3652 69L7.1728 84H0.980444H-5.21191L0.980444 69Z" fill="white" fill-opacity="0.06"/>
<path d="M23.5205 69L17.3281 54H23.5205H29.7128L35.9052 69L29.7128 84H23.5205H17.3281L23.5205 69Z" fill="white" fill-opacity="0.06"/>
<path d="M46.0605 69L39.8682 54H46.0605H52.2529L58.4452 69L52.2529 84H46.0605H39.8682L46.0605 69Z" fill="white" fill-opacity="0.06"/>
<path d="M68.6006 69L62.4082 54H68.6006H74.7929L80.9853 69L74.7929 84H68.6006H62.4082L68.6006 69Z" fill="white" fill-opacity="0.06"/>
<path d="M91.1411 69L84.9487 54H91.1411H97.3334L103.526 69L97.3334 84H91.1411H84.9487L91.1411 69Z" fill="white" fill-opacity="0.06"/>
<path d="M113.681 69L107.489 54H113.681H119.873L126.066 69L119.873 84H113.681H107.489L113.681 69Z" fill="white" fill-opacity="0.06"/>
<path d="M136.221 69L130.029 54H136.221H142.414L148.606 69L142.414 84H136.221H130.029L136.221 69Z" fill="white" fill-opacity="0.06"/>
<path d="M-10.4136 39L-16.606 24H-10.4136H-4.22124L1.97112 39L-4.22124 54H-10.4136H-16.606L-10.4136 39Z" fill="white" fill-opacity="0.06"/>
<path d="M12.1264 39L5.93408 24H12.1264H18.3188L24.5112 39L18.3188 54H12.1264H5.93408L12.1264 39Z" fill="white" fill-opacity="0.06"/>
<path d="M34.6665 39L28.4741 24H34.6665H40.8588L47.0512 39L40.8588 54H34.6665H28.4741L34.6665 39Z" fill="white" fill-opacity="0.06"/>
<path d="M57.207 39L51.0146 24H57.207H63.3994L69.5917 39L63.3994 54H57.207H51.0146L57.207 39Z" fill="white" fill-opacity="0.06"/>
<path d="M79.747 39L73.5547 24H79.747H85.9394L92.1318 39L85.9394 54H79.747H73.5547L79.747 39Z" fill="white" fill-opacity="0.06"/>
<path d="M102.287 39L96.0947 24H102.287H108.479L114.672 39L108.479 54H102.287H96.0947L102.287 39Z" fill="white" fill-opacity="0.06"/>
<path d="M124.828 39L118.635 24H124.828H131.02L137.212 39L131.02 54H124.828H118.635L124.828 39Z" fill="white" fill-opacity="0.06"/>
<path d="M0.732398 9L-5.45996 -6H0.732398H6.92476L13.1171 9L6.92476 24H0.732398H-5.45996L0.732398 9Z" fill="white" fill-opacity="0.06"/>
<path d="M23.2729 9L17.0806 -6H23.2729H29.4653L35.6576 9L29.4653 24H23.2729H17.0806L23.2729 9Z" fill="white" fill-opacity="0.06"/>
<path d="M45.813 9L39.6206 -6H45.813H52.0053L58.1977 9L52.0053 24H45.813H39.6206L45.813 9Z" fill="white" fill-opacity="0.06"/>
<path d="M68.353 9L62.1606 -6H68.353H74.5454L80.7377 9L74.5454 24H68.353H62.1606L68.353 9Z" fill="white" fill-opacity="0.06"/>
<path d="M90.8935 9L84.7012 -6H90.8935H97.0859L103.278 9L97.0859 24H90.8935H84.7012L90.8935 9Z" fill="white" fill-opacity="0.06"/>
<path d="M113.434 9L107.241 -6H113.434H119.626L125.818 9L119.626 24H113.434H107.241L113.434 9Z" fill="white" fill-opacity="0.06"/>
<path d="M135.974 9L129.781 -6H135.974H142.166L148.358 9L142.166 24H135.974H129.781L135.974 9Z" fill="white" fill-opacity="0.06"/>
<path d="M-10.166 99L-16.3584 84H-10.166H-3.97368L2.21868 99L-3.97368 114H-10.166H-16.3584L-10.166 99Z" fill="white" fill-opacity="0.06"/>
<path d="M12.374 99L6.18164 84H12.374H18.5664L24.7587 99L18.5664 114H12.374H6.18164L12.374 99Z" fill="white" fill-opacity="0.06"/>
<path d="M34.9145 99L28.7222 84H34.9145H41.1069L47.2992 99L41.1069 114H34.9145H28.7222L34.9145 99Z" fill="white" fill-opacity="0.06"/>
<path d="M57.4546 99L51.2622 84H57.4546H63.6469L69.8393 99L63.6469 114H57.4546H51.2622L57.4546 99Z" fill="white" fill-opacity="0.06"/>
<path d="M79.9946 99L73.8022 84H79.9946H86.187L92.3793 99L86.187 114H79.9946H73.8022L79.9946 99Z" fill="white" fill-opacity="0.06"/>
<path d="M102.535 99L96.3428 84H102.535H108.727L114.92 99L108.727 114H102.535H96.3428L102.535 99Z" fill="white" fill-opacity="0.06"/>
<path d="M125.075 99L118.883 84H125.075H131.268L137.46 99L131.268 114H125.075H118.883L125.075 99Z" fill="white" fill-opacity="0.06"/>
</svg>
