<?xml version="1.0" encoding="utf-8"?>
<svg viewBox="68.50000762939453 495.3000183105469 275.8000183105469 110.50003051757812" width="275.8000183105469" height="110.50003051757812" xmlns="http://www.w3.org/2000/svg"><path class="st1" d="M339,566.9v-28l-66.3-13.1l-42.9-30.5h-76.7l-18.9,3.5l8.3,4.9l-30.5,18.7H92.2c-18.9-1.2-20.1,7.7-20.1,7.7&#10;&#9;v9.8l24,3.3v12.2H72v2.2l-3.5,2.6v22.4h31.1c2.6,13.2,14.3,23.2,28.3,23.2c14,0,25.7-10,28.3-23.2h88.1&#10;&#9;c2.6,13.2,14.3,23.2,28.3,23.2c14,0,25.7-10,28.3-23.2h28.2h15.2v-15.7H339z M127.9,593.5c-9.2,0-16.7-7.5-16.7-16.7&#10;&#9;c0-9.2,7.5-16.7,16.7-16.7c9.2,0,16.7,7.5,16.7,16.7C144.6,586.1,137.2,593.5,127.9,593.5z M208.5,544.2h-22.6v-3h22.6V544.2z&#10;&#9; M144.6,529.6v-8.2l19.9-15.3h57.6l26.2,23.5H144.6z M272.7,593.5c-9.2,0-16.7-7.5-16.7-16.7c0-9.2,7.5-16.7,16.7-16.7&#10;&#9;c9.2,0,16.7,7.5,16.7,16.7C289.4,586.1,281.9,593.5,272.7,593.5z" style="fill: rgb(204, 204, 204); opacity: 1;" transform="matrix(1, 0, 0, 1, 1.1368683772161603e-13, 0)"/></svg>